<svg width="22.000000" height="22.000000" viewBox="0 0 22 22" fill="none" xmlns="http://www.w3.org/2000/svg" xmlns:xlink="http://www.w3.org/1999/xlink">
	<desc>
			Created with Pixso.
	</desc>
	<defs>
		<clipPath id="clip8_34">
			<rect id="heart" rx="0.000000" width="21.000000" height="21.000000" transform="translate(0.500000 0.500000)" fill="white" fill-opacity="0"/>
		</clipPath>
	</defs>
	<rect id="heart" rx="0.000000" width="21.000000" height="21.000000" transform="translate(0.500000 0.500000)" fill="#FFFFFF" fill-opacity="0"/>
	<g clip-path="url(#clip8_34)">
		<path id="heart" d="M10.3 18.73C9.58 18.1 8.87 17.5 8.25 16.98C6.65 15.7 5.16 14.3 3.78 12.78C2.67 11.59 2.04 10.03 2 8.4C1.97 6.99 2.48 5.62 3.42 4.56C3.88 4.06 4.44 3.67 5.06 3.4C5.68 3.13 6.35 2.99 7.02 3C8.05 2.99 9.05 3.33 9.85 3.97C10.29 4.31 10.67 4.71 11 5.16C11.32 4.71 11.7 4.31 12.14 3.97C12.94 3.34 13.94 2.99 14.97 3C15.64 2.99 16.31 3.13 16.93 3.4C17.55 3.67 18.11 4.06 18.57 4.56C19.51 5.62 20.02 6.99 19.99 8.4C19.95 10.03 19.32 11.59 18.21 12.78C16.84 14.3 15.34 15.7 13.74 16.97C13.12 17.5 12.42 18.1 11.69 18.74C11.5 18.9 11.25 19 11 19C10.74 19 10.49 18.9 10.3 18.73Z" stroke="#000000" stroke-opacity="1.000000" stroke-width="1.200000"/>
	</g>
</svg>
