<svg width="131.000000" height="26.000000" viewBox="0 0 131 26" fill="none" xmlns="http://www.w3.org/2000/svg" xmlns:xlink="http://www.w3.org/1999/xlink">
	<defs/>
	<rect id="Frame 37" rx="0.000000" width="130.000000" height="25.000000" transform="translate(0.500000 0.500000)" fill="#FFFFFF" fill-opacity="0"/>
	<path id="COLORS" d="M17.54 16.79C16.83 19.04 14.84 21.3 11.39 21.3C7.46 21.3 4.5 18.29 4.5 13.5C4.5 8.69 7.46 5.69 11.39 5.69C14.06 5.69 16.5 7.19 17.54 10.05L20.84 10.05C19.97 6.3 16.64 2.69 11.39 2.69C5.87 2.69 1.34 7.05 1.34 13.5C1.34 19.95 5.87 24.3 11.39 24.3C17.06 24.3 20.12 20.09 20.84 16.79L17.54 16.79ZM43.36 13.5C43.36 19.95 38.83 24.3 33.31 24.3C27.79 24.3 23.26 19.95 23.26 13.5C23.26 7.05 27.79 2.69 33.31 2.69C38.83 2.69 43.36 7.05 43.36 13.5ZM81.15 13.5C81.15 19.95 76.62 24.3 71.1 24.3C65.58 24.3 61.05 19.95 61.05 13.5C61.05 7.05 65.58 2.69 71.1 2.69C76.62 2.69 81.15 7.05 81.15 13.5ZM111.46 24.3C106.21 24.3 103.21 21.3 103.21 17.54L106.36 17.54C106.36 19.5 108.34 21.3 111.46 21.3C114.91 21.3 116.26 19.95 116.26 18.14C116.26 16.61 115.06 15.59 112.66 15.14L108.61 14.39C105.28 13.8 103.66 11.73 103.66 8.84C103.66 5.39 106.51 2.69 111.16 2.69C116.41 2.69 119.11 5.69 119.11 9.44L115.96 9.44C115.96 7.5 114.16 5.69 111.16 5.69C108.31 5.69 106.81 7.16 106.81 8.84C106.81 10.2 107.68 11.25 109.96 11.7L113.26 12.3C117.49 13.05 119.41 14.82 119.41 18.14C119.41 21.59 116.71 24.3 111.46 24.3ZM46.95 24L60.3 24L60.3 21L50.1 21L50.1 3L46.95 3L46.95 24ZM84.75 24L87.89 24L87.89 16.5L89.39 16.5L96.89 24L100.94 24L93.44 16.5L94.19 16.5C97.64 16.5 100.35 13.82 100.35 9.75C100.35 5.66 97.64 3 94.19 3L84.75 3L84.75 24ZM40.21 13.5C40.21 8.69 37.24 5.69 33.31 5.69C29.38 5.69 26.41 8.69 26.41 13.5C26.41 18.29 29.38 21.3 33.31 21.3C37.24 21.3 40.21 18.29 40.21 13.5ZM78 13.5C78 8.69 75.03 5.69 71.1 5.69C67.17 5.69 64.2 8.69 64.2 13.5C64.2 18.29 67.17 21.3 71.1 21.3C75.03 21.3 78 18.29 78 13.5ZM87.89 13.5L87.89 6L94.04 6C95.72 6 97.19 7.5 97.19 9.75C97.19 12 95.72 13.5 94.04 13.5L87.89 13.5Z" fill="#1F2020" fill-opacity="1.000000" fill-rule="evenodd"/>
	<circle id="Ellipse 258" cx="127.000000" cy="6.000000" r="4.000000" fill="#1F2020" fill-opacity="1.000000"/>
</svg>
